<svg xmlns="http://www.w3.org/2000/svg" width="48" height="48" viewBox="0 0 48 48">
  <path fill="#4285F4" d="M24 9.5c3.5 0 6.2 1.2 8.3 3.1l6.2-6.2C34.5 3.4 29.5 1.5 24 1.5c-7.5 0-13.9 4.1-17.2 10.3L13.6 16c1.8-3.9 5.7-6.5 10.4-6.5z"/>
  <path fill="#34A853" d="M46.4 24.5c0-1.5-.1-3-.3-4.5H24v9h12.7c-.6 3-2.5 5.4-5.2 7.1l8 6.2c4.6-4.2 7.2-10.4 7.2-17.8z"/>
  <path fill="#FBBC05" d="M6.3 14.8C5.2 17.4 4.5 20.4 4.5 23.5s.7 6.1 1.8 8.7l8.8-6.8c-.4-1.1-.6-2.3-.6-3.6s.2-2.5.6-3.6L6.3 14.8z"/>
  <path fill="#EA4335" d="M24 46.5c5.5 0 10.5-1.8 14.5-4.9l-8-6.2c-1.8 1.2-4.1 1.9-6.5 1.9-4.7 0-8.7-2.6-10.4-6.5l-8.8 6.8C10.1 42.4 16.5 46.5 24 46.5z"/>
</svg>
